<?xml version="1.0" standalone="no"?>
<!DOCTYPE svg PUBLIC "-//W3C//DTD SVG 20010904//EN"
 "http://www.w3.org/TR/2001/REC-SVG-20010904/DTD/svg10.dtd">
<svg version="1.0" xmlns="http://www.w3.org/2000/svg"
 width="1280.000000pt" height="1236.000000pt" viewBox="0 0 1280.000000 1236.000000"
 preserveAspectRatio="xMidYMid meet">
<metadata>
Created by potrace 1.15, written by Peter Selinger 2001-2017
</metadata>
<g transform="translate(0.000000,1236.000000) scale(0.100000,-0.100000)"
fill="#000000" stroke="none">
<path d="M6722 12340 c-50 -23 -142 -106 -167 -153 l-17 -33 -57 56 c-133 132
-284 148 -321 34 -30 -90 71 -276 232 -431 67 -63 152 -123 176 -123 21 0 148
126 198 197 55 76 118 210 134 284 17 77 7 121 -36 158 -41 37 -79 40 -142 11z"/>
<path d="M10121 12205 c-160 -36 -171 -72 -232 -760 -17 -198 -35 -371 -40
-384 -10 -24 -11 -24 -112 -18 -389 24 -767 17 -862 -16 -36 -13 -40 -17 -40
-48 0 -30 5 -36 45 -56 56 -28 243 -60 630 -109 162 -20 299 -40 305 -45 6 -6
0 -91 -17 -233 -30 -259 -39 -288 -189 -588 -157 -316 -351 -618 -582 -906
-182 -227 -529 -612 -551 -612 -7 0 -28 32 -47 72 -104 219 -242 401 -562 743
-161 171 -152 135 -94 360 67 260 81 358 82 575 0 232 -13 305 -81 440 -79
157 -181 226 -354 237 -207 13 -379 -89 -470 -279 -108 -227 -117 -501 -24
-758 73 -203 198 -399 398 -620 71 -79 86 -101 86 -129 0 -40 -76 -225 -175
-421 -271 -542 -617 -977 -889 -1119 -78 -42 -97 -40 -141 12 -136 158 -175
420 -195 1299 -15 661 -42 1148 -71 1276 -21 94 -76 132 -203 140 -140 8 -232
-28 -255 -101 -26 -81 -63 -488 -81 -882 -13 -286 -20 -350 -66 -605 -129
-703 -268 -1137 -461 -1427 -56 -86 -77 -99 -92 -60 -17 45 -50 214 -65 337
-36 291 -40 427 -41 1335 0 897 -3 987 -37 1170 -25 141 -85 186 -254 193
-132 5 -197 -12 -247 -67 -24 -26 -39 -56 -47 -92 -29 -137 -60 -353 -80 -559
-39 -417 -48 -483 -76 -561 -92 -258 -566 -1070 -594 -1018 -4 8 -10 75 -14
149 -21 406 -110 1099 -196 1515 -52 250 -228 900 -256 943 -28 42 -109 56
-163 27 -39 -20 -110 -101 -133 -152 -26 -59 -51 -210 -98 -588 -103 -842
-209 -1264 -431 -1721 -166 -342 -434 -701 -581 -779 l-37 -19 -31 29 c-43 41
-85 132 -117 250 -24 92 -27 116 -27 295 0 146 4 219 17 290 40 211 106 375
190 466 57 63 88 75 119 48 45 -41 88 -202 88 -329 0 -77 18 -98 84 -98 59 0
93 23 102 69 8 43 -2 204 -17 274 -21 97 -86 160 -193 187 -134 33 -262 -10
-366 -125 -69 -75 -128 -189 -165 -316 -99 -346 -97 -744 6 -961 40 -85 81
-129 147 -162 52 -26 66 -28 167 -27 89 0 121 4 166 22 211 83 466 377 714
821 132 235 229 490 311 809 31 120 57 218 59 220 7 8 16 -64 35 -303 44 -566
51 -705 57 -1105 5 -355 3 -420 -9 -450 -9 -19 -88 -123 -177 -230 -407 -489
-649 -828 -866 -1210 -259 -456 -423 -894 -492 -1315 -25 -155 -25 -518 1
-660 21 -113 71 -262 112 -332 85 -145 215 -213 408 -213 437 0 871 560 1184
1530 185 573 310 1236 373 1985 6 72 14 290 18 485 8 404 -1 362 109 514 143
197 326 495 447 729 22 42 45 75 50 74 6 -2 13 -93 16 -228 10 -336 38 -553
103 -789 93 -339 240 -553 432 -628 82 -33 197 -45 289 -33 180 25 272 105
390 341 85 170 169 402 239 659 17 63 36 116 42 118 7 2 20 -31 33 -83 49
-196 115 -318 225 -422 124 -115 261 -171 442 -180 138 -6 234 13 354 70 74
35 99 55 192 149 122 123 213 238 340 428 159 236 338 567 468 864 24 54 48
96 54 94 19 -6 144 -166 224 -287 128 -192 211 -377 246 -552 20 -98 15 -112
-78 -208 -188 -195 -383 -446 -447 -575 -54 -109 -68 -188 -45 -249 65 -169
402 -179 641 -21 129 86 256 242 340 417 83 174 121 360 113 548 -3 58 -2 112
1 121 3 10 90 106 192 215 390 416 634 715 834 1022 33 50 63 92 68 92 9 0 9
-30 -3 -125 -65 -532 -106 -1251 -89 -1584 19 -391 97 -641 250 -805 106 -114
239 -166 424 -166 180 0 274 37 390 154 90 91 141 173 298 471 341 650 575
986 908 1310 172 167 309 264 489 347 49 22 91 47 95 56 19 50 -108 68 -227
32 -216 -65 -562 -302 -828 -569 -279 -279 -431 -498 -765 -1095 -124 -224
-222 -374 -263 -407 l-26 -20 -13 25 c-46 88 -79 373 -69 601 19 425 43 680
151 1660 82 739 108 1000 128 1308 3 38 10 74 15 79 12 12 221 -2 671 -43 184
-17 237 -18 290 -9 156 27 188 111 66 173 -86 43 -600 134 -883 156 -67 6
-126 12 -131 15 -4 3 -11 142 -14 308 -5 285 -26 619 -47 753 -5 33 -18 71
-28 85 -41 54 -194 81 -311 55z m-2656 -1567 c51 -60 110 -186 142 -303 25
-91 27 -115 26 -270 0 -138 -5 -195 -26 -302 -35 -182 -34 -182 -94 -92 -143
215 -200 375 -210 590 -8 174 21 321 78 393 28 36 42 33 84 -16z m530 -3138
c-30 -142 -91 -263 -181 -358 -62 -65 -64 -66 -79 -47 -30 38 6 148 85 266 39
57 179 213 186 207 1 -2 -4 -32 -11 -68z m-5239 -917 c-50 -781 -179 -1505
-391 -2189 -142 -458 -345 -817 -546 -968 -82 -62 -108 -61 -165 1 -130 141
-191 382 -181 708 18 558 283 1282 710 1945 185 287 563 788 580 771 6 -6 4
-103 -7 -268z"/>
<path d="M1583 11270 c-38 -23 -76 -77 -98 -140 -23 -62 -45 -182 -45 -239 l0
-48 -47 23 c-115 54 -314 68 -386 27 -45 -26 -80 -97 -72 -147 12 -82 73 -163
189 -248 174 -130 360 -197 587 -214 l96 -7 31 76 c106 253 106 552 1 777 -64
138 -167 194 -256 140z"/>
<path d="M12312 10930 c-76 -46 -117 -226 -86 -377 4 -21 2 -22 -23 -12 -47
19 -221 16 -280 -5 -150 -51 -153 -200 -5 -294 159 -103 408 -157 605 -132
l96 12 10 47 c19 89 24 224 11 321 -12 101 -66 280 -102 339 -66 111 -149 148
-226 101z"/>
<path d="M12505 7352 c-65 -23 -127 -59 -197 -117 -58 -48 -152 -163 -183
-224 l-17 -33 -17 28 c-28 46 -135 140 -210 184 -112 67 -164 83 -263 84 -80
1 -89 -1 -129 -29 -120 -85 -118 -246 5 -451 154 -256 374 -479 617 -626 35
-21 69 -38 76 -38 24 0 246 232 318 332 162 226 295 531 295 676 0 70 -21 123
-65 167 -63 64 -138 79 -230 47z"/>
<path d="M214 6740 c-173 -70 -269 -593 -176 -955 l18 -70 153 -3 c233 -4 417
37 630 140 234 113 280 298 96 389 -58 28 -77 32 -178 37 -101 4 -178 -4 -229
-23 -15 -6 -16 4 -16 92 0 183 -55 329 -146 384 -33 20 -113 25 -152 9z"/>
<path d="M5390 6559 c-65 -11 -162 -55 -207 -93 -96 -81 -214 -326 -319 -665
-166 -534 -223 -969 -231 -1786 -4 -374 -8 -486 -19 -506 -22 -43 -246 -290
-492 -541 -128 -130 -232 -241 -232 -246 0 -23 32 -34 83 -30 43 3 67 14 125
53 96 64 292 227 425 354 59 56 113 101 120 98 12 -4 14 -17 42 -272 18 -169
55 -433 85 -605 101 -578 260 -956 498 -1181 148 -140 305 -219 506 -254 364
-63 717 94 924 411 70 107 79 120 84 114 2 -3 24 -36 49 -75 120 -183 281
-304 479 -361 89 -25 281 -26 365 -1 183 54 318 148 420 292 49 69 158 273
208 390 146 342 207 699 176 1035 -7 80 -12 155 -12 166 0 13 34 55 85 105 46
46 104 110 127 141 24 32 47 58 51 58 5 0 13 -24 19 -52 6 -29 29 -147 51
-263 84 -428 238 -1086 283 -1206 41 -108 94 -204 131 -237 77 -67 244 -91
381 -53 90 25 115 52 115 124 0 29 -14 155 -32 281 l-32 229 22 196 c35 317
186 1315 219 1451 24 99 35 106 117 69 25 -11 101 -31 168 -45 67 -13 124 -26
126 -28 2 -3 -10 -64 -27 -138 -69 -304 -101 -555 -101 -800 0 -596 250 -994
701 -1112 239 -63 521 -55 732 21 372 133 626 429 703 817 18 90 35 529 24
604 -13 84 -93 133 -194 118 -72 -11 -92 -34 -106 -119 -55 -341 -209 -730
-377 -954 -155 -207 -379 -326 -499 -265 -46 24 -123 98 -166 159 -77 113
-142 299 -170 490 -17 113 -17 560 0 708 28 245 64 481 77 501 8 13 37 27 82
39 162 43 353 135 457 221 118 98 201 232 230 376 29 138 13 258 -49 385 -57
115 -143 179 -281 208 -126 27 -257 11 -357 -42 -77 -41 -202 -171 -286 -298
-91 -135 -213 -384 -281 -570 -28 -77 -56 -152 -62 -167 -9 -24 -16 -28 -47
-28 -41 1 -129 31 -251 86 -81 37 -90 39 -185 39 -162 0 -198 -29 -255 -204
-17 -53 -59 -232 -94 -399 -35 -167 -67 -306 -70 -309 -14 -14 -25 22 -75 247
-80 356 -180 759 -198 797 -51 109 -269 148 -421 76 -60 -28 -65 -52 -73 -303
-5 -175 -10 -235 -23 -270 -41 -108 -173 -325 -234 -383 l-29 -28 -45 78
c-119 205 -276 303 -484 303 -190 0 -323 -79 -404 -240 -44 -88 -63 -178 -58
-285 3 -77 8 -98 31 -137 91 -157 361 -233 627 -178 52 10 96 18 98 16 9 -9
22 -140 22 -222 0 -318 -76 -619 -241 -949 -86 -173 -152 -264 -244 -332 -96
-72 -116 -72 -187 6 -93 103 -152 250 -202 501 -50 253 -61 379 -61 740 0 354
9 479 61 855 43 310 67 418 115 520 47 96 53 100 138 81 125 -28 163 15 69 80
-87 60 -271 82 -401 48 -104 -27 -175 -70 -262 -158 -119 -120 -174 -233 -260
-533 -136 -472 -167 -902 -99 -1355 19 -122 16 -139 -43 -298 -98 -262 -226
-450 -378 -553 -187 -127 -291 -116 -455 51 -68 70 -95 107 -137 187 -123 240
-189 505 -258 1045 -50 392 -84 893 -88 1265 -2 266 -10 239 112 428 359 560
581 1143 621 1630 21 269 -36 531 -148 684 -84 113 -279 181 -442 152z m178
-330 c75 -150 100 -423 63 -679 -49 -328 -140 -609 -307 -942 -35 -71 -69
-128 -75 -128 -20 0 6 405 47 733 43 349 103 669 166 886 38 135 58 183 72
178 6 -1 21 -23 34 -48z m5722 -1582 c42 -85 60 -158 60 -243 0 -152 -83 -320
-205 -414 -51 -40 -205 -124 -212 -116 -8 7 81 347 122 471 72 216 148 365
185 365 13 0 29 -20 50 -63z m-3363 -1364 c39 -40 69 -86 99 -148 48 -101 90
-236 81 -259 -7 -19 -129 -81 -176 -90 -75 -14 -166 39 -202 119 -45 98 -2
299 86 404 15 17 34 31 42 31 8 0 40 -26 70 -57z"/>
<path d="M8185 6154 c-50 -26 -81 -62 -114 -134 -85 -185 -82 -489 7 -712 31
-76 77 -160 118 -215 21 -28 27 -31 66 -26 187 21 393 114 551 247 66 55 161
174 199 250 61 121 46 261 -34 302 -82 42 -279 -7 -424 -107 l-42 -28 -6 53
c-10 75 -67 235 -105 295 -18 28 -47 60 -66 71 -39 24 -108 26 -150 4z"/>
<path d="M3138 2751 c-122 -39 -236 -194 -312 -422 -47 -141 -59 -239 -53
-417 3 -114 10 -169 31 -246 14 -54 28 -101 30 -104 3 -2 54 -11 113 -19 235
-31 520 26 718 144 219 131 325 259 312 375 -8 67 -32 102 -91 135 -50 27 -55
28 -201 28 -142 0 -208 -9 -289 -41 -17 -6 -18 -4 -12 17 4 13 10 74 13 135
10 185 -38 352 -114 396 -36 22 -108 31 -145 19z"/>
<path d="M10790 823 c-61 -30 -179 -141 -201 -191 -16 -37 -25 -40 -34 -13 -9
29 -108 126 -168 166 -60 39 -131 61 -169 52 -40 -10 -85 -53 -99 -94 -57
-172 153 -540 404 -706 l57 -38 44 30 c251 173 454 563 382 734 -35 86 -116
108 -216 60z"/>
</g>
</svg>
